<?xml version="1.0" encoding="UTF-8" standalone="no"?>
<!-- Created with Inkscape (http://www.inkscape.org/) -->

<svg
   width="962.13635mm"
   height="962.13647mm"
   viewBox="0 0 962.13635 962.13647"
   version="1.1"
   id="svg5"
   xml:space="preserve"
   xmlns="http://www.w3.org/2000/svg"
   xmlns:svg="http://www.w3.org/2000/svg"><defs
     id="defs2" /><g
     id="layer1"
     style="display:inline"
     transform="translate(-327.93665,-3285.8068)"><rect
       style="fill:none;fill-opacity:1;stroke-width:24.2575;stroke-linecap:round;stroke-linejoin:round;stroke-miterlimit:10;stroke-dasharray:none;paint-order:markers stroke fill"
       id="rect1117"
       width="962.13635"
       height="962.13635"
       x="327.93668"
       y="3285.8069" /><path
       id="path1121"
       style="fill:#e07b1d;fill-opacity:1;stroke-width:29.5122;stroke-linecap:round;stroke-linejoin:round;stroke-miterlimit:10;stroke-dasharray:none;paint-order:markers stroke fill"
       d="m 998.94513,3437.8355 -120.39056,120.3905 120.39036,120.3903 c 10.33267,10.3327 10.33267,27.0851 10e-6,37.4178 -86.4965,86.4965 -172.99315,172.9933 -259.4898,259.49 l 120.39056,120.3905 c 10.33262,10.3327 27.08512,10.3327 37.41774,0 127.86346,-127.8635 265.10216,-265.1024 379.88036,-379.8805 10.3327,-10.3327 10.3327,-27.0851 0,-37.4178 -80.2603,-80.2603 -160.5207,-160.5205 -240.7809,-240.7808 -10.3327,-10.3327 -27.0851,-10.3327 -37.41777,0 z" /><path
       id="path1123"
       style="fill:#1eb8e0;fill-opacity:1;stroke-width:29.5122;stroke-linecap:round;stroke-linejoin:round;stroke-miterlimit:10;stroke-dasharray:none;paint-order:markers stroke fill"
       d="m 619.06458,4095.9146 120.39054,-120.3905 a 2.5391347e-5,2.5391347e-5 90.000026 0 0 0,0 L 619.06471,3855.1335 c -10.33261,-10.3326 -10.3326,-27.0851 3e-5,-37.4178 86.49652,-86.4964 172.99318,-172.9931 259.48983,-259.4897 L 758.16415,3437.8355 c -10.33262,-10.3327 -27.08511,-10.3327 -37.41774,0 -127.86359,127.8634 -265.10228,265.1022 -379.88053,379.8803 -10.33263,10.3326 -10.33264,27.085 -2e-5,37.4177 80.26037,80.2604 160.52074,160.5207 240.781,240.7811 10.33261,10.3326 27.0851,10.3327 37.41772,0 z" /></g></svg>
